<svg width="21" height="24" viewBox="0 0 21 24" fill="none" xmlns="http://www.w3.org/2000/svg">
<g clip-path="url(#clip0_25_40)">
<path d="M9.42188 0.274219C10.0922 -0.0914062 10.9031 -0.0914062 11.5781 0.274219L19.7953 4.76016C20.0344 4.89141 20.1844 5.14453 20.1844 5.41641C20.1844 5.68828 20.0344 5.94141 19.7953 6.07266L10.8609 10.9477C10.6359 11.0695 10.3687 11.0695 10.1437 10.9477L1.20469 6.07266C0.965625 5.94141 0.815625 5.68828 0.815625 5.41641C0.815625 5.14453 0.965625 4.89141 1.20469 4.76016L9.42188 0.274219ZM1.11094 7.76016L9.36094 12.2602C9.6 12.3914 9.75 12.6445 9.75 12.9164V23.0414C9.75 23.3039 9.60938 23.5523 9.38437 23.6883C9.15938 23.8242 8.87344 23.8289 8.64375 23.7023L1.17188 19.6242C0.45 19.2305 0 18.4758 0 17.6508V8.41641C0 8.15391 0.140625 7.90547 0.365625 7.76953C0.590625 7.63359 0.876563 7.62891 1.10625 7.75547L1.11094 7.76016ZM19.8937 7.76016C20.1281 7.63359 20.4094 7.63828 20.6344 7.77422C20.8594 7.91016 21 8.15391 21 8.42109V17.6555C21 18.4805 20.55 19.2352 19.8281 19.6289L12.3609 23.6977C12.1266 23.8242 11.8453 23.8195 11.6203 23.6836C11.3953 23.5477 11.2547 23.3039 11.2547 23.0367V12.9117C11.2547 12.6352 11.4047 12.3867 11.6437 12.2555L19.8937 7.75547V7.76016Z" fill="#FFFCF2"/>
</g>
<defs>
<clipPath id="clip0_25_40">
<rect width="21" height="24" fill="white"/>
</clipPath>
</defs>
</svg>
