<svg width="24" height="24" viewBox="0 0 24 24" fill="none" xmlns="http://www.w3.org/2000/svg">
<g clip-path="url(#clip0_25_49)">
<path d="M7.55364 16.9811C7.87942 17.2118 8.26905 17.335 8.6682 17.3337V17.3283C9.04458 17.3291 9.41287 17.2194 9.72739 17.0127C10.0419 16.8059 10.2888 16.5114 10.4375 16.1657L11.2548 13.6805C11.4436 13.1175 11.7607 12.6061 12.1812 12.1868C12.6016 11.7675 13.1139 11.4518 13.6774 11.2646L16.0481 10.494C16.4299 10.3599 16.7598 10.1087 16.9906 9.77614C17.2215 9.44376 17.3416 9.04698 17.3339 8.64232C17.3262 8.23767 17.1911 7.84573 16.9478 7.52229C16.7044 7.19885 16.3654 6.96039 15.9787 6.8408L13.6388 6.08084C13.0728 5.8925 12.5584 5.57474 12.1367 5.1528C11.715 4.73088 11.3975 4.21641 11.2095 3.65029L10.4388 1.28107C10.3044 0.903713 10.0558 0.577608 9.72753 0.348033C9.39927 0.11847 9.00768 -0.00316394 8.60711 6.25686e-05C8.20655 0.00328908 7.81693 0.131203 7.4924 0.366032C7.16787 0.600861 6.92456 0.930938 6.79624 1.3104L6.01893 3.69962C5.83149 4.24927 5.52168 4.74921 5.11288 5.1617C4.70407 5.57418 4.20695 5.88846 3.65898 6.08084L1.28969 6.84214C1.00787 6.94071 0.752825 7.10346 0.544723 7.31755C0.336621 7.53164 0.181158 7.7912 0.0906395 8.07571C0.000108061 8.36021 -0.0230116 8.66186 0.0231074 8.95685C0.0692398 9.25182 0.183331 9.53202 0.35638 9.77534C0.592229 10.1073 0.926755 10.3564 1.31236 10.4873L3.65098 11.2459C4.21847 11.4358 4.73389 11.7554 5.15628 12.1792C5.2697 12.2918 5.3757 12.4116 5.4736 12.5379C5.73917 12.8816 5.94431 13.268 6.08026 13.6805L6.85091 16.047C6.9822 16.424 7.22787 16.7505 7.55364 16.9811ZM17.7756 23.7107C17.5216 23.5296 17.3304 23.2736 17.229 22.9787L16.7916 21.6361C16.7066 21.3808 16.5638 21.1485 16.3743 20.9575C16.1843 20.767 15.9523 20.6235 15.697 20.5388L14.3757 20.1082C14.0685 20.0051 13.8018 19.8071 13.6144 19.5429C13.4313 19.2865 13.3333 18.9792 13.3344 18.6643C13.3348 18.3472 13.434 18.0383 13.6184 17.7803C13.8013 17.521 14.0618 17.3263 14.3624 17.2243L15.7037 16.7897C15.953 16.7011 16.1787 16.5568 16.3636 16.3674C16.5486 16.1781 16.6876 15.9491 16.7703 15.6977L17.2023 14.3751C17.3039 14.0762 17.4959 13.8161 17.7518 13.631C18.0075 13.4458 18.3145 13.3448 18.6303 13.3417C18.9461 13.3386 19.2551 13.4337 19.5144 13.6138C19.7737 13.794 19.9708 14.0502 20.0782 14.3471L20.5169 15.6991C20.6028 15.9525 20.7461 16.1826 20.9358 16.3713C21.1255 16.5601 21.3563 16.7023 21.6102 16.787L22.9328 17.2177C23.2378 17.313 23.5048 17.5019 23.6964 17.7576C23.8879 18.0132 23.994 18.3228 23.9998 18.6421C24.0055 18.9616 23.9106 19.2746 23.7284 19.5371C23.5463 19.7995 23.286 19.9979 22.9848 20.1042L21.6329 20.5428C21.3794 20.6292 21.1491 20.7724 20.9596 20.9615C20.7698 21.1519 20.6269 21.3837 20.5422 21.6388L20.1129 22.9574C20.0096 23.2644 19.811 23.5307 19.5462 23.7173C19.2903 23.9013 18.9829 24.0003 18.6676 24C18.3472 24 18.0349 23.8987 17.7756 23.7107Z" fill="#FFFCF2"/>
</g>
<defs>
<clipPath id="clip0_25_49">
<rect width="24" height="24" fill="white"/>
</clipPath>
</defs>
</svg>
