<svg width="24" height="24" viewBox="0 0 24 24" fill="none" xmlns="http://www.w3.org/2000/svg">
<g clip-path="url(#clip0_25_39)">
<path d="M10.9922 0.314835C11.6438 0.0804596 12.3563 0.0804596 13.0125 0.314835L22.0125 3.53046C23.2031 3.95702 24 5.08671 24 6.35702V17.743C24 19.0086 23.2031 20.143 22.0078 20.5695L13.0078 23.7851C12.3562 24.0195 11.6437 24.0195 10.9875 23.7851L1.9875 20.5695C0.796875 20.1383 0 19.0086 0 17.7383V6.35702C0 5.0914 0.796875 3.95702 1.99219 3.53046L10.9922 0.314835ZM12 3.1414L3.85781 6.04765L12 8.9539L20.1422 6.04765L12 3.1414ZM13.5 20.4195L21 17.743V8.93046L13.5 11.607V20.4195Z" fill="#FFFCF2"/>
</g>
<defs>
<clipPath id="clip0_25_39">
<rect width="24" height="24" fill="white"/>
</clipPath>
</defs>
</svg>
