<svg width="24" height="24" viewBox="0 0 24 24" fill="none" xmlns="http://www.w3.org/2000/svg">
<path d="M13.8312 0.968912L22.2367 6.57259C22.8436 6.97714 23.0075 7.79703 22.603 8.40386C22.5062 8.54892 22.3818 8.6734 22.2367 8.77011L13.8312 14.3738C12.7223 15.1131 11.2776 15.1131 10.1686 14.3738L1.76315 8.77011C1.15632 8.36555 0.992349 7.54568 1.3969 6.93885C1.49362 6.79377 1.61809 6.66929 1.76315 6.57259L10.1686 0.968912C11.2776 0.229616 12.7223 0.229616 13.8312 0.968912ZM22.5981 12.5467C22.4022 12.8602 22.1425 13.1291 21.8362 13.336L13.847 18.7288C12.7309 19.4821 11.269 19.4821 10.1529 18.7288L2.16374 13.336C1.15882 12.6577 0.769123 11.409 1.13486 10.3125L10.1686 16.3335C11.2083 17.0267 12.543 17.07 13.6195 16.4635L13.8312 16.3335L22.8642 10.3118C23.1042 11.033 23.0325 11.8519 22.5981 12.5467ZM22.5981 16.8385C22.4022 17.152 22.1425 17.4209 21.8362 17.6278L13.847 23.0205C12.7309 23.7739 11.269 23.7739 10.1529 23.0205L2.16374 17.6278C1.15882 16.9494 0.769123 15.7007 1.13486 14.6043L10.1686 20.6253C11.2083 21.3185 12.543 21.3618 13.6195 20.7553L13.8312 20.6253L22.8642 14.6036C23.1042 15.3248 23.0325 16.1436 22.5981 16.8385Z" fill="#FFFCF2"/>
</svg>
