<svg width="25" height="24" viewBox="0 0 25 24" fill="none" xmlns="http://www.w3.org/2000/svg">
<g clip-path="url(#clip0_52_1653)">
<path d="M1.62618 2.96944C1.76153 4.59319 2.20778 5.2324 3.49913 5.5252C3.87361 5.61011 4.50247 5.69149 4.83377 5.88252C5.30862 6.15632 5.60059 6.5819 5.84316 6.98079C5.99062 7.22329 6.27313 7.58424 6.50354 7.74963C7.37709 8.37668 8.33565 8.45026 8.87005 8.48048C9.09136 8.49298 9.44816 8.50238 9.66686 8.4611C10.4215 8.31857 11.2522 8.06626 11.99 8.10907C12.125 8.1169 12.1375 8.18879 12.0206 8.25767C11.7202 8.43472 11.3093 8.68295 10.7933 8.91278C10.4426 9.06897 9.88096 9.32971 9.55254 9.52886C9.01375 9.85559 8.70343 10.1602 8.65742 11.5707C8.64879 11.8352 8.57482 12.2502 8.47551 12.4956C8.30973 12.9052 8.05025 13.3265 7.11664 13.6255C7.26131 13.1396 7.40061 12.8066 7.37067 12.5262C7.35421 12.3721 7.22088 12.3741 7.13716 12.5064C6.99659 12.7285 6.80316 12.986 6.58555 13.2008C6.42487 13.3594 6.10924 13.5494 5.89688 13.6268C5.39889 13.8084 4.82982 13.8757 4.2577 13.7067C4.68277 13.1729 5.38123 12.8289 5.71002 12.2293C5.81212 12.0432 5.92244 11.7068 5.92022 11.496C5.9181 11.2948 5.86644 11.0973 5.75215 11.0914C5.47878 11.0555 5.17644 11.095 4.85868 11.1745C4.42964 11.2819 3.73544 11.4545 3.29508 11.4172C2.56573 11.3554 1.80133 11.1159 1.23748 10.5995C0.91834 10.3073 0.500825 9.72657 0.319643 9.33583C0.0320565 8.71561 -0.199261 7.79931 0.261702 7.24161C0.614208 7.84444 0.623129 8.37539 1.53354 8.92157C1.75718 9.05574 2.14892 9.22238 2.40482 9.27184C2.66452 9.32203 2.97625 9.34454 3.22743 9.26365C3.52297 9.16849 3.77246 8.61298 3.66782 8.32059C3.62897 8.21203 3.56449 8.10074 3.46478 7.99899C3.25069 7.78052 2.74476 7.66297 2.45025 7.57087C2.43915 7.56734 2.42805 7.56388 2.41695 7.56028C2.07316 7.44927 1.6016 7.09287 1.37042 6.81421C1.20803 6.61848 1.06877 6.36114 0.984158 5.87365C0.918155 5.49338 0.825398 4.86928 0.843264 4.48452C0.876961 3.7588 1.28879 3.39783 1.62618 2.96944Z" fill="#FFFCF2"/>
<path d="M2.99924 4.02517C3.26583 4.02517 3.48194 3.81176 3.48194 3.54849C3.48194 3.28523 3.26583 3.07182 2.99924 3.07182C2.73265 3.07182 2.51654 3.28523 2.51654 3.54849C2.51654 3.81176 2.73265 4.02517 2.99924 4.02517Z" fill="#FFFCF2"/>
<path d="M4.90563 2.76168C4.70092 2.8342 4.52889 2.95572 4.40585 3.15073C4.30923 3.30387 4.25667 3.59807 4.26518 3.77936C4.28094 4.11534 4.37857 4.35142 4.52174 4.53192C4.68178 4.73369 5.07068 4.91369 5.28614 5.05593C5.74789 5.36077 5.98441 5.77227 6.28397 6.14724C6.3457 5.86094 6.35136 5.57293 6.31349 5.28C6.28847 5.08651 6.22369 4.77115 6.12685 4.60252C5.98334 4.3526 5.77227 4.26827 5.56018 4.15535C5.44884 4.09608 5.27918 3.97982 5.18625 3.89448C5.11478 3.82886 5.05355 3.76177 4.99235 3.69467C4.90232 3.59597 4.79761 3.41271 4.8032 3.27967C4.80927 3.13514 4.84157 2.95608 4.90563 2.76168Z" fill="#FFFCF2"/>
<path d="M18.5725 0.0580177C18.4494 0.20758 18.2212 0.477244 17.9388 0.792057C17.768 0.98241 17.474 1.27654 17.2606 1.41703C16.7639 1.74395 16.1786 1.94675 15.6569 2.23846C16.3564 2.13067 17.1764 2.02696 17.8424 1.88168C17.9465 1.85898 18.0734 1.76311 18.1256 1.66981C18.3016 1.35559 18.4519 1.07512 18.6051 0.79276C18.711 0.569824 18.8295 0.304373 18.706 0.0642434C18.6776 0.00892318 18.6122 0.00987955 18.5725 0.0580177Z" fill="#FFFCF2"/>
<path d="M21.5093 0.0015333C21.4273 -0.0119904 21.3144 0.0667067 21.2589 0.128895C21.2423 0.147503 21.2256 0.166166 21.2089 0.184913C20.8723 0.562158 20.2561 1.10852 19.8304 1.38137C19.5549 1.55791 19.2794 1.70863 19.0054 1.84703C18.5186 2.09291 17.6875 2.38459 17.1617 2.52709C16.8499 2.61162 16.519 2.70092 16.1925 2.78437C15.4519 2.97363 14.3096 3.10384 13.6592 3.18179C13.2898 3.22608 12.8201 3.3972 12.6009 3.49017C12.2866 3.62347 11.8332 4.00728 11.7271 4.32953C11.697 4.42082 11.6772 4.51463 11.6595 4.60999C11.6242 4.80039 11.4344 4.94724 11.2411 4.95887C10.9082 4.97889 10.5914 5.03957 10.2775 5.10739C10.0113 5.16493 9.58875 5.13041 9.32156 5.07929C9.04389 5.02617 8.77814 5.01628 8.51396 5.01834C8.44195 5.01905 8.38149 5.07849 8.37874 5.15045L8.35959 5.6517C8.35513 5.7684 8.35874 5.95738 8.35683 6.07393C8.35531 6.16826 8.35201 6.26448 8.35959 6.35457C8.37065 6.48656 8.45256 6.69001 8.50027 6.81457C8.51004 6.8401 8.52006 6.86555 8.53038 6.89085C8.60534 7.07466 8.77288 7.35301 8.9174 7.48862C8.98468 7.55176 9.05736 7.61002 9.13435 7.66433C9.20179 7.7119 9.27936 7.6828 9.31281 7.6074C9.44237 7.3153 9.64833 7.10841 9.96131 6.94066C10.1592 6.83462 10.514 6.79676 10.7348 6.83775C10.8844 6.86553 11.0356 6.89932 11.1829 6.93975C11.3043 6.97305 11.4903 6.95655 11.599 6.89322C11.7119 6.82736 11.8253 6.76199 11.9489 6.70947C12.0858 6.65135 12.3172 6.5806 12.4611 6.54324C12.5009 6.53293 12.5406 6.52368 12.5803 6.51514C12.9069 6.44495 13.4567 6.4057 13.7669 6.527C13.8767 6.56993 13.9472 6.61747 13.9926 6.66057C14.0562 6.72099 14.0764 6.86739 14.0753 6.95708C14.0715 7.25043 14.0742 7.35042 14.0601 7.40395C14.0134 7.58013 13.7854 7.79505 13.6687 7.93603C13.2051 8.49597 12.9565 8.73514 12.5595 9.09945C12.3987 9.24696 12.1138 9.45454 11.9097 9.53118C11.8119 9.5679 11.7115 9.59887 11.6075 9.62369C11.4448 9.66255 11.1739 9.67074 11.0078 9.65508C10.9117 9.64604 10.8222 9.63372 10.747 9.61421C10.7048 9.60326 10.6583 9.62314 10.6485 9.66566C10.5957 9.89456 10.7018 10.1222 10.8601 10.3204C11.0801 10.5957 11.5174 10.9817 11.8249 11.1524C12.1423 11.3287 12.4819 11.4057 12.7823 11.4415C12.8313 11.4473 12.866 11.4113 12.8618 11.3621C12.8582 11.3193 12.8562 11.2785 12.8554 11.2395C12.8486 10.8896 12.9749 10.3091 13.1773 10.0257C13.1863 10.0131 13.1956 10.001 13.2049 9.989C13.3956 9.74388 13.8139 9.44541 14.0846 9.29215C14.1335 9.2644 14.182 9.23853 14.2302 9.21442C14.5236 9.06765 15.0422 8.93019 15.3679 8.88798C15.5501 8.86436 15.717 8.85362 15.9016 8.84455C16.1121 8.83421 16.4502 8.78418 16.6378 8.68927C16.7614 8.62676 16.8606 8.55824 16.9519 8.48764C17.1045 8.36958 17.3096 8.13772 17.3978 7.96633C17.4744 7.81745 17.539 7.65391 17.571 7.45012C17.5992 7.27003 17.74 7.12149 17.9224 7.12587C18.2517 7.13378 18.6037 7.14508 18.8434 7.11566C18.9922 7.09741 19.2488 7.0433 19.3508 6.93703C19.3626 6.92474 19.3732 6.91192 19.3829 6.89889C19.4276 6.83941 19.4153 6.74535 19.355 6.70201C19.1236 6.53568 18.7371 6.38026 18.3527 6.24054C18.1773 6.17677 17.8803 6.04377 17.825 5.86849C17.8139 5.83332 17.8063 5.79234 17.8029 5.7435C17.7975 5.66379 17.8687 5.60828 17.9484 5.61486C18.2453 5.6394 18.4767 5.60338 18.6852 5.54624C18.835 5.50516 19.0729 5.42107 19.2163 5.3614C19.4165 5.27813 19.5915 5.18021 19.7046 5.03715C19.7292 5.00608 19.7338 4.94747 19.7064 4.91964C19.6448 4.85734 19.5337 4.8199 19.4055 4.79265C19.1138 4.73061 18.6281 4.68687 18.3439 4.59777C18.2008 4.5529 18.0833 4.49492 17.9934 4.41676C17.9203 4.35331 17.9019 4.20771 17.9434 4.12006C18.0971 3.79529 18.3582 3.6146 18.6238 3.43964C18.8917 3.26316 19.3234 2.97571 19.5933 2.80154C20.064 2.49766 20.4746 2.14294 20.8014 1.74066C21.0045 1.49062 21.325 1.06851 21.4411 0.770284C21.4951 0.631735 21.5351 0.486851 21.5742 0.340205C21.6015 0.237541 21.6224 0.0319562 21.5285 0.00573854C21.5223 0.00397304 21.5159 0.00255729 21.5093 0.0015333ZM14.4822 4.22825C14.4891 4.22508 14.4938 4.22853 14.4926 4.23592C14.4563 4.45436 14.3404 4.67291 14.232 4.89135C14.182 4.99204 14.0832 5.14253 14.0026 5.22088C13.9363 5.28538 13.8555 5.34474 13.7161 5.38292C13.5416 5.43074 13.2426 5.4306 13.0642 5.39881C12.9507 5.37858 12.8544 5.3439 12.7876 5.28477C12.7558 5.2567 12.7513 5.19544 12.7702 5.1574C12.8862 4.92481 13.0463 4.72173 13.2946 4.57733C13.4279 4.49986 13.6725 4.44425 13.8236 4.41366C14.1034 4.35701 14.3565 4.28382 14.4822 4.22825ZM9.78759 5.85643C9.83434 5.85997 9.87599 5.86819 9.90912 5.88454C9.93259 5.89612 9.95255 5.93151 9.95693 5.95662C9.97292 6.04844 9.9726 6.13261 9.93466 6.19894C9.91566 6.23216 9.86226 6.26777 9.82481 6.27977C9.66045 6.33246 9.43322 6.31636 9.22449 6.32046C9.17519 6.32586 9.15111 6.27527 9.13526 6.20605C9.13219 6.08513 9.15274 6.00519 9.18982 5.95388C9.26128 5.85498 9.50492 5.86502 9.63523 5.85753C9.68892 5.85436 9.74084 5.85294 9.78759 5.85643Z" fill="#FFFCF2"/>
<path d="M20.5411 2.89787C20.436 2.8871 20.2935 2.94552 20.2168 3.01793C19.9092 3.30833 19.4138 3.65331 18.9007 4.00856C18.8223 4.06283 18.8348 4.11995 18.9284 4.13793C19.9019 4.32499 20.1654 4.53216 20.3225 4.75814C20.3821 4.84399 20.3982 5.00037 20.356 5.0959C20.0928 5.69242 19.6106 5.74109 19.176 5.90916C19.0715 5.94957 19.0774 6.01962 19.182 6.05988C19.6939 6.25687 19.9645 6.49017 20.0453 6.75181C20.0891 6.89346 20.0063 7.12782 19.9028 7.23517C19.7017 7.44378 19.4257 7.56254 19.0957 7.61653L19.1614 7.64644C19.3818 7.92232 19.5164 8.23543 19.5847 8.5774C19.7552 9.42989 19.4675 10.8828 19.0587 11.6498C19.0369 11.6907 19.0146 11.7314 18.9917 11.7719C18.3702 12.8706 16.7913 14.2135 15.854 15.0624C15.1179 15.729 14.4149 16.4719 13.7935 17.4045C13.5059 17.8362 12.8797 18.1433 12.3721 18.2383C11.9681 18.3138 11.7343 18.3476 11.2714 18.409C11.2036 18.418 11.1739 18.4054 11.1685 18.3373C11.1157 17.6659 11.0912 17.2391 11.4229 16.5464C11.5011 16.383 11.7237 16.2235 11.9031 16.1995C12.6162 16.1041 13.5612 16.1537 13.8616 15.8003C13.9195 15.7321 13.8738 15.6259 13.7906 15.5915C13.315 15.3949 12.7471 15.3038 12.2031 15.1854C12.1422 15.1721 12.1207 15.1187 12.1551 15.0669C12.4477 14.6273 12.7626 14.192 13.4224 13.823C13.4582 13.8118 13.5082 13.8092 13.5709 13.8137C13.9728 13.8425 14.573 14.1592 14.9714 14.2046C15.3103 14.2431 15.5968 14.1789 15.7286 14.0996C15.7822 14.0674 15.7595 13.9922 15.7029 13.9619C15.1958 13.69 14.7318 13.4038 14.1243 13.1654C14.0607 13.1404 14.0569 13.0953 14.1152 13.061C14.4352 12.8729 14.7305 12.6354 15.0316 12.4096C15.1228 12.3412 15.2705 12.3451 15.3715 12.3972C15.7923 12.6142 16.8447 12.9911 17.3798 12.5941C17.4349 12.5532 17.4252 12.4825 17.3648 12.4499C16.9817 12.2433 16.4489 12.0714 15.9465 11.864C15.874 11.8341 15.8706 11.777 15.935 11.7323C16.2794 11.4929 16.5433 11.1437 16.7738 10.8245C16.8292 10.7477 16.9486 10.7037 17.0418 10.7207C17.7356 10.8473 18.6182 10.7662 18.8145 10.1424C18.8318 10.0875 18.7951 10.0562 18.7401 10.0733C18.2249 10.2329 17.8366 10.2349 17.5363 10.0747C17.4449 10.0259 17.3631 9.88713 17.3666 9.78366C17.3716 9.63414 17.4101 9.47075 17.4704 9.30285C17.5324 9.13043 17.6013 8.90991 17.6589 8.68464C17.4725 8.85464 17.2469 8.99327 16.9982 9.11345C16.7865 9.21578 16.5141 9.45212 16.4377 9.67399C16.3078 10.051 16.1702 10.4318 14.6642 11.4803C13.7707 12.1023 12.2903 13.074 11.5208 13.8438C11.1299 14.2349 10.7734 14.6777 10.4912 15.2318C9.99987 16.1964 9.84249 18.0027 10.0306 19.0714C10.4262 21.3186 11.7516 22.6569 13.0185 23.9342C13.1309 24.0474 13.236 24.0108 13.2592 23.853C13.4465 22.5781 13.8839 21.4929 14.5356 20.5689C15.4709 19.2428 17.7497 17.7904 19.0536 16.8098C19.5256 16.4548 19.9864 16.0941 20.4292 15.7245C20.669 15.5244 20.7809 15.601 20.6246 15.8705C20.3511 16.342 19.9692 16.7172 19.6028 17.1062C19.4692 17.248 19.521 17.3424 19.7101 17.2957C20.2925 17.1519 20.7796 16.8988 21.2001 16.569C22.153 15.8216 23.3149 14.0848 23.4624 12.8964C23.5241 12.3993 23.5226 11.8949 23.5436 11.3965C23.5515 11.2094 23.6121 11.2014 23.6693 11.3795C24.0629 12.6055 23.9699 12.8718 23.9906 13.3717C23.995 13.4777 24.0555 13.4946 24.1207 13.4111C24.5188 12.9022 25.1918 12.0414 24.9243 9.92177C24.8469 9.30843 24.5363 8.35406 24.2536 7.80421C23.7605 6.84537 23.1257 5.93376 22.2152 5.11406C22.1572 5.06183 22.1711 5.00601 22.2482 4.99436C22.8562 4.90254 23.5286 5.06906 24.2017 5.23778C24.2684 5.25448 24.3081 5.21398 24.2837 5.14983C24.1564 4.81557 23.8964 4.53624 23.5704 4.2778C23.3502 4.10326 22.967 3.8557 22.7299 3.70485C22.1548 3.33892 21.5446 3.00065 20.5411 2.89787Z" fill="#FFFCF2"/>
</g>
<defs>
<clipPath id="clip0_52_1653">
<rect width="24.9855" height="24" fill="white"/>
</clipPath>
</defs>
</svg>
