<svg width="21" height="24" viewBox="0 0 21 24" fill="none" xmlns="http://www.w3.org/2000/svg">
<g clip-path="url(#clip0_25_43)">
<path d="M0.440613 10.9406C-0.145325 11.5266 -0.145325 12.4781 0.440613 13.0641L7.94061 20.5641C8.52655 21.15 9.47811 21.15 10.0641 20.5641C10.65 19.9781 10.65 19.0266 10.0641 18.4406L5.11874 13.5H19.5C20.3297 13.5 21 12.8297 21 12C21 11.1703 20.3297 10.5 19.5 10.5H5.12343L10.0594 5.55938C10.6453 4.97344 10.6453 4.02188 10.0594 3.43594C9.47343 2.85 8.52186 2.85 7.93593 3.43594L0.435925 10.9359L0.440613 10.9406Z" fill="#FFFCF2"/>
</g>
<defs>
<clipPath id="clip0_25_43">
<rect width="21" height="24" fill="white"/>
</clipPath>
</defs>
</svg>
